<svg viewBox="0 0 500 600" xmlns="http://www.w3.org/2000/svg">
  <!-- Tree trunk and hands base -->
  <path d="M 250 150 Q 240 180 230 220 Q 220 260 215 300 L 215 350 Q 215 380 240 400 L 260 400 Q 285 380 285 350 L 285 300 Q 280 260 270 220 Q 260 180 250 150 Z" fill="#000000"/>
  
  <!-- Left hand -->
  <path d="M 150 280 Q 120 290 100 310 Q 90 320 95 340 Q 110 350 130 345 Q 145 340 155 320 Q 160 300 155 280 Z" fill="#FF9900"/>
  <path d="M 140 270 Q 115 265 100 280 Q 90 290 100 310 Q 120 290 150 280 Z" fill="#FF9900"/>
  
  <!-- Right hand -->
  <path d="M 350 280 Q 380 290 400 310 Q 410 320 405 340 Q 390 350 370 345 Q 355 340 345 320 Q 340 300 345 280 Z" fill="#FF9900"/>
  <path d="M 360 270 Q 385 265 400 280 Q 410 290 400 310 Q 380 290 350 280 Z" fill="#FF9900"/>
  
  <!-- Tree top with leaves -->
  <!-- Center top -->
  <ellipse cx="250" cy="100" rx="12" ry="20" fill="#228B22" transform="rotate(-20 250 100)"/>
  <ellipse cx="250" cy="80" rx="10" ry="18" fill="#32CD32" transform="rotate(-30 250 80)"/>
  
  <!-- Left side leaves -->
  <ellipse cx="220" cy="90" rx="12" ry="22" fill="#228B22" transform="rotate(45 220 90)"/>
  <ellipse cx="200" cy="110" rx="11" ry="20" fill="#32CD32" transform="rotate(60 200 110)"/>
  <ellipse cx="190" cy="135" rx="10" ry="18" fill="#228B22" transform="rotate(70 190 135)"/>
  <ellipse cx="195" cy="160" rx="12" ry="21" fill="#7CFC00" transform="rotate(75 195 160)"/>
  
  <!-- Right side leaves -->
  <ellipse cx="280" cy="90" rx="12" ry="22" fill="#228B22" transform="rotate(-45 280 90)"/>
  <ellipse cx="300" cy="110" rx="11" ry="20" fill="#32CD32" transform="rotate(-60 300 110)"/>
  <ellipse cx="310" cy="135" rx="10" ry="18" fill="#228B22" transform="rotate(-70 310 135)"/>
  <ellipse cx="305" cy="160" rx="12" ry="21" fill="#7CFC00" transform="rotate(-75 305 160)"/>
  
  <!-- Additional decorative leaves -->
  <circle cx="240" cy="130" r="6" fill="#FF9900"/>
  <circle cx="260" cy="130" r="6" fill="#FF9900"/>
  <circle cx="250" cy="145" r="5" fill="#FF9900"/>
  
  <!-- Text: FORTUNATE FUTURE -->
  <text x="250" y="480" font-size="48" font-weight="bold" text-anchor="middle" fill="#228B22" font-family="Arial, sans-serif">
    FORTUNATE
  </text>
  <text x="250" y="530" font-size="48" font-weight="bold" text-anchor="middle" fill="#228B22" font-family="Arial, sans-serif">
    FUTURE
  </text>
  
  <!-- Text: INTERNATIONAL -->
  <text x="250" y="570" font-size="18" text-anchor="middle" fill="#000000" font-family="Arial, sans-serif" letter-spacing="4">
    INTERNATIONAL
  </text>
</svg>